<svg width="209" height="209" viewBox="0 0 209 209" fill="none" xmlns="http://www.w3.org/2000/svg">
<g opacity="0.1">
<path d="M129.616 104.938C129.61 118.614 118.519 129.696 104.844 129.69C91.168 129.684 80.0864 118.593 80.0921 104.917C80.0979 91.2418 91.1888 80.1602 104.864 80.166C118.54 80.1717 129.622 91.2626 129.616 104.938Z" fill="white"/>
<path fill-rule="evenodd" clip-rule="evenodd" d="M104.81 208.928C157.204 208.95 200.564 170.225 207.795 119.828L146.883 119.803C140.757 137.112 124.242 149.507 104.835 149.499C85.4286 149.491 68.924 137.081 62.8126 119.767L1.90102 119.742C9.08898 170.145 52.4171 208.906 104.81 208.928ZM62.8251 90.0531L1.91349 90.0275C9.14377 39.6307 52.5044 0.90588 104.898 0.927874C157.291 0.949868 200.619 39.7111 207.807 90.1139L146.896 90.0884C140.784 72.7744 124.279 60.3646 104.873 60.3564C85.4661 60.3483 68.951 72.7442 62.8251 90.0531ZM129.616 104.938C129.61 118.614 118.519 129.696 104.844 129.69C91.168 129.684 80.0864 118.593 80.0921 104.917C80.0979 91.2418 91.1888 80.1602 104.864 80.166C118.54 80.1717 129.622 91.2626 129.616 104.938Z" fill="white"/>
</g>
</svg>
