<svg width="25" height="25" viewBox="0 0 25 25" fill="none" xmlns="http://www.w3.org/2000/svg">
<path d="M14.8758 12.6588C14.8751 14.2368 13.5954 15.5154 12.0174 15.5148C10.4395 15.5141 9.16084 14.2344 9.1615 12.6564C9.16216 11.0785 10.4419 9.79982 12.0198 9.80048C13.5978 9.80114 14.8764 11.0809 14.8758 12.6588Z" fill="#212121"/>
<path fill-rule="evenodd" clip-rule="evenodd" d="M12.0136 24.6576C18.059 24.6602 23.0621 20.1919 23.8964 14.3769L16.8681 14.3739C16.1613 16.3711 14.2557 17.8014 12.0165 17.8005C9.77725 17.7995 7.87287 16.3676 7.1677 14.3699L0.139448 14.3669C0.968829 20.1826 5.96823 24.6551 12.0136 24.6576ZM7.16914 10.9413L0.140888 10.9384C0.975151 5.12334 5.9783 0.655088 12.0237 0.657625C18.0691 0.660163 23.0685 5.13262 23.8978 10.9483L16.8696 10.9454C16.1644 8.94761 14.26 7.51571 12.0208 7.51477C9.78157 7.51383 7.87599 8.94413 7.16914 10.9413ZM14.8758 12.6588C14.8751 14.2368 13.5954 15.5154 12.0174 15.5148C10.4395 15.5141 9.16084 14.2344 9.1615 12.6564C9.16216 11.0785 10.4419 9.79982 12.0198 9.80048C13.5978 9.80114 14.8764 11.0809 14.8758 12.6588Z" fill="#212121"/>
</svg>
