<svg width="9" height="17" viewBox="0 0 9 17" fill="none" xmlns="http://www.w3.org/2000/svg">
<path d="M7.75098 0.879953L1.75098 0.877434C1.19879 0.877202 0.750789 1.32483 0.750557 1.87701L0.74468 15.877C0.744448 16.4292 1.19207 16.8772 1.74426 16.8774L7.74426 16.88C8.29645 16.8802 8.74445 16.4326 8.74468 15.8804L8.75056 1.88037C8.75079 1.32818 8.30316 0.880184 7.75098 0.879953ZM1.74468 15.8774L1.75056 1.87743L7.75056 1.87995L7.74972 3.87995L5.99972 3.87922C5.86159 3.87916 5.74967 3.99099 5.74961 4.12911L5.7494 4.62911C5.74934 4.76724 5.86117 4.87916 5.9993 4.87922L7.7493 4.87995L7.74846 6.87995L5.99846 6.87922C5.86033 6.87916 5.74841 6.99099 5.74835 7.12911L5.74814 7.62911C5.74808 7.76724 5.85991 7.87916 5.99804 7.87922L7.74804 7.87995L7.7472 9.87995L5.9972 9.87922C5.85907 9.87916 5.74715 9.99099 5.74709 10.1291L5.74688 10.6291C5.74683 10.7672 5.85865 10.8792 5.99678 10.8792L7.74678 10.88L7.74594 12.88L5.99594 12.8792C5.85781 12.8792 5.74589 12.991 5.74583 13.1291L5.74562 13.6291C5.74557 13.7672 5.85739 13.8792 5.99552 13.8792L7.74552 13.88L7.74468 15.88L1.74468 15.8774Z" fill="#212121"/>
</svg>
