<svg width="17" height="17" viewBox="0 0 17 17" fill="none" xmlns="http://www.w3.org/2000/svg">
<path d="M14.7501 2.83968L12.7248 2.83883C11.8116 1.63157 10.3782 0.837843 8.75098 0.83716C7.12379 0.836477 5.68971 1.629 4.77545 2.83549L2.75014 2.83464C1.64732 2.83418 0.74976 3.73099 0.749297 4.8338L0.7451 14.8338C0.744637 15.9366 1.64145 16.8342 2.74426 16.8346L14.7443 16.8397C15.8471 16.8401 16.7446 15.9433 16.7451 14.8405L16.7493 4.84052C16.7498 3.73771 15.8529 2.84014 14.7501 2.83968ZM8.75056 1.83716C10.9596 1.83809 12.7498 3.62978 12.7489 5.83884C12.7479 8.0479 10.9563 9.83809 8.7472 9.83716C6.53814 9.83623 4.74795 8.04454 4.74888 5.83548C4.7498 3.62642 6.54149 1.83623 8.75056 1.83716ZM15.7451 14.8401C15.7449 15.3923 15.2969 15.8399 14.7447 15.8397L2.74468 15.8346C2.19249 15.8344 1.74487 15.3864 1.7451 14.8342L1.7493 4.83422C1.74953 4.28203 2.19753 3.83441 2.74972 3.83464L4.17347 3.83524C3.90383 4.44856 3.74918 5.12319 3.74888 5.83506C3.74772 8.59193 5.9899 10.836 8.74678 10.8372C11.5037 10.8383 13.7477 8.59613 13.7489 5.83926C13.7492 5.12738 13.5951 4.45263 13.326 3.83908L14.7497 3.83968C15.3019 3.83991 15.7495 4.28791 15.7493 4.8401L15.7451 14.8401ZM8.74762 8.83716C9.5748 8.83751 10.2479 8.16498 10.2482 7.33779C10.2484 6.90279 10.0595 6.51396 9.76308 6.23977L10.709 4.03486C10.8179 3.78146 10.7005 3.48735 10.4465 3.3785C10.194 3.26964 9.89897 3.3867 9.79011 3.64103L8.84356 5.84689C7.73547 5.77423 7.2485 6.73184 7.24825 7.33653C7.2479 8.16372 7.92043 8.83681 8.74762 8.83716ZM8.74846 6.83716C9.02471 6.83727 9.24836 7.06112 9.24825 7.33737C9.24813 7.61362 9.02429 7.83727 8.74804 7.83716C8.47179 7.83704 8.24813 7.6132 8.24825 7.33695C8.24836 7.0607 8.47221 6.83704 8.74846 6.83716Z" fill="#212121"/>
</svg>
