<svg width="21" height="33" viewBox="0 0 21 33" fill="none" xmlns="http://www.w3.org/2000/svg">
<g clip-path="url(#clip0_346_15672)">
<path d="M6.73851 16.198L6.36778 17.9278L7.68778 17.9284L7.68736 18.9284L6.15736 18.9277L5.75658 20.7776L4.66658 20.7771L5.06736 18.9273L3.10736 18.9264L2.70658 20.7763L1.61658 20.7758L2.01736 18.926L0.46736 18.9253L0.46778 17.9253L2.22778 17.9261L2.59851 16.1962L1.05851 16.1956L1.05893 15.1956L2.80893 15.1963L3.19969 13.3765L4.28969 13.3769L3.89893 15.1968L5.85893 15.1976L6.24969 13.3778L7.33969 13.3782L6.94893 15.1981L8.27893 15.1986L8.27851 16.1986L6.73851 16.198ZM5.64851 16.1975L3.68851 16.1967L3.31778 17.9265L5.27778 17.9274L5.64851 16.1975Z" fill="#212121"/>
<g clip-path="url(#clip1_346_15672)">
<path d="M20.0346 19.8918L19.7822 19.6392C19.615 19.4717 19.3436 19.4716 19.1761 19.6389L16.1947 22.6351L16.2004 9.21053C16.2005 8.97385 16.0086 8.78188 15.772 8.78178L15.4148 8.78163C15.1781 8.78153 14.9862 8.97334 14.9861 9.21002L14.9804 22.6346L12.0015 19.6359C11.8343 19.4685 11.5629 19.4683 11.3954 19.6356L11.1428 19.8881C10.9754 20.0554 10.9753 20.3267 11.1426 20.4941L15.2837 24.6561C15.451 24.8235 15.7223 24.8236 15.8898 24.6563L20.0344 20.4979C20.2018 20.3306 20.202 20.0592 20.0346 19.8918Z" fill="#212121"/>
</g>
</g>
<defs>
<clipPath id="clip0_346_15672">
<rect x="0.0253906" y="0.775146" width="20" height="32" rx="8" transform="rotate(0.0240521 0.0253906 0.775146)" fill="white"/>
</clipPath>
<clipPath id="clip1_346_15672">
<rect width="9" height="16" fill="white" transform="translate(11.022 8.77979) rotate(0.0240521)"/>
</clipPath>
</defs>
</svg>
